<mxfile host="app.diagrams.net" modified="2021-05-12T14:27:50.561Z" agent="5.0 (Windows)" etag="8RfWLMAgdW6bmv6IbPO-" version="14.6.12" type="github">
  <diagram id="M5NmcH6w99j9EcvWKyK-" name="Page-1">
    <mxGraphModel dx="1730" dy="912" grid="1" gridSize="10" guides="1" tooltips="1" connect="1" arrows="1" fold="1" page="1" pageScale="1" pageWidth="827" pageHeight="1169" math="0" shadow="0">
      <root>
        <mxCell id="0" />
        <mxCell id="1" parent="0" />
        <mxCell id="MbVoy9RgzzWDaomn8BP1-6" style="edgeStyle=orthogonalEdgeStyle;rounded=0;orthogonalLoop=1;jettySize=auto;html=1;entryX=0.5;entryY=0;entryDx=0;entryDy=0;exitX=0.5;exitY=1;exitDx=0;exitDy=0;" edge="1" parent="1" source="MbVoy9RgzzWDaomn8BP1-1" target="MbVoy9RgzzWDaomn8BP1-3">
          <mxGeometry relative="1" as="geometry">
            <mxPoint x="120" y="150" as="sourcePoint" />
          </mxGeometry>
        </mxCell>
        <mxCell id="MbVoy9RgzzWDaomn8BP1-7" style="edgeStyle=orthogonalEdgeStyle;rounded=0;orthogonalLoop=1;jettySize=auto;html=1;entryX=0.5;entryY=0;entryDx=0;entryDy=0;" edge="1" parent="1" source="MbVoy9RgzzWDaomn8BP1-1" target="MbVoy9RgzzWDaomn8BP1-2">
          <mxGeometry relative="1" as="geometry" />
        </mxCell>
        <mxCell id="MbVoy9RgzzWDaomn8BP1-8" style="edgeStyle=orthogonalEdgeStyle;rounded=0;orthogonalLoop=1;jettySize=auto;html=1;entryX=0.5;entryY=0;entryDx=0;entryDy=0;" edge="1" parent="1" source="MbVoy9RgzzWDaomn8BP1-1" target="MbVoy9RgzzWDaomn8BP1-4">
          <mxGeometry relative="1" as="geometry" />
        </mxCell>
        <mxCell id="MbVoy9RgzzWDaomn8BP1-9" style="edgeStyle=orthogonalEdgeStyle;rounded=0;orthogonalLoop=1;jettySize=auto;html=1;exitX=0.9;exitY=0.5;exitDx=0;exitDy=0;exitPerimeter=0;entryX=0.5;entryY=0;entryDx=0;entryDy=0;" edge="1" parent="1" source="MbVoy9RgzzWDaomn8BP1-1" target="MbVoy9RgzzWDaomn8BP1-5">
          <mxGeometry relative="1" as="geometry" />
        </mxCell>
        <mxCell id="MbVoy9RgzzWDaomn8BP1-1" value="" style="shape=actor;whiteSpace=wrap;html=1;" vertex="1" parent="1">
          <mxGeometry x="400" y="60" width="40" height="60" as="geometry" />
        </mxCell>
        <mxCell id="MbVoy9RgzzWDaomn8BP1-11" style="edgeStyle=orthogonalEdgeStyle;rounded=0;orthogonalLoop=1;jettySize=auto;html=1;entryX=0.5;entryY=0;entryDx=0;entryDy=0;" edge="1" parent="1" source="MbVoy9RgzzWDaomn8BP1-2" target="MbVoy9RgzzWDaomn8BP1-10">
          <mxGeometry relative="1" as="geometry" />
        </mxCell>
        <mxCell id="MbVoy9RgzzWDaomn8BP1-2" value="&lt;div&gt;&lt;b&gt;Groupe Etab Papier&lt;br&gt;&lt;/b&gt;&lt;/div&gt;&lt;div&gt;&lt;br&gt;&lt;/div&gt;&lt;div align=&quot;left&quot;&gt;&lt;ul&gt;&lt;li&gt;accès catalogue papier&lt;/li&gt;&lt;li&gt;commandes décrémentent crédits : oui/non&lt;/li&gt;&lt;li&gt;réassort : oui/non&lt;br&gt;&lt;/li&gt;&lt;/ul&gt;&lt;/div&gt;&lt;div&gt;&lt;br&gt;&lt;b&gt;&lt;/b&gt;&lt;/div&gt;" style="whiteSpace=wrap;html=1;aspect=fixed;fillColor=#d5e8d4;strokeColor=#82b366;" vertex="1" parent="1">
          <mxGeometry x="40" y="160" width="160" height="160" as="geometry" />
        </mxCell>
        <mxCell id="MbVoy9RgzzWDaomn8BP1-12" style="edgeStyle=orthogonalEdgeStyle;rounded=0;orthogonalLoop=1;jettySize=auto;html=1;" edge="1" parent="1" source="MbVoy9RgzzWDaomn8BP1-3">
          <mxGeometry relative="1" as="geometry">
            <mxPoint x="420" y="400" as="targetPoint" />
          </mxGeometry>
        </mxCell>
        <mxCell id="MbVoy9RgzzWDaomn8BP1-3" value="&lt;div&gt;&lt;b&gt;Groupe Etab numérique&lt;/b&gt;&lt;/div&gt;&lt;div align=&quot;left&quot;&gt;&lt;br&gt;&lt;/div&gt;&lt;div align=&quot;left&quot;&gt;&lt;ul&gt;&lt;li&gt;accès catalogue numérique&lt;/li&gt;&lt;li&gt;commandes décrémentent crédits : oui/non&lt;/li&gt;&lt;li&gt;réassort : oui/non&lt;br&gt;&lt;/li&gt;&lt;/ul&gt;&lt;/div&gt;&lt;div&gt;&lt;br&gt;&lt;/div&gt;" style="whiteSpace=wrap;html=1;aspect=fixed;fillColor=#ffe6cc;strokeColor=#d79b00;" vertex="1" parent="1">
          <mxGeometry x="240" y="160" width="160" height="160" as="geometry" />
        </mxCell>
        <mxCell id="MbVoy9RgzzWDaomn8BP1-13" style="edgeStyle=orthogonalEdgeStyle;rounded=0;orthogonalLoop=1;jettySize=auto;html=1;" edge="1" parent="1" source="MbVoy9RgzzWDaomn8BP1-4">
          <mxGeometry relative="1" as="geometry">
            <mxPoint x="420" y="400" as="targetPoint" />
          </mxGeometry>
        </mxCell>
        <mxCell id="MbVoy9RgzzWDaomn8BP1-4" value="&lt;div&gt;&lt;b&gt;Groupe Etab mixte&lt;/b&gt;&lt;/div&gt;&lt;div&gt;&lt;br&gt;&lt;/div&gt;&lt;div align=&quot;left&quot;&gt;&lt;ul&gt;&lt;li&gt;accès catalogue complet&lt;/li&gt;&lt;li&gt;commandes décrémentent crédits : oui/non&lt;/li&gt;&lt;li&gt;réassort : oui/non&lt;/li&gt;&lt;/ul&gt;&lt;/div&gt;" style="whiteSpace=wrap;html=1;aspect=fixed;fillColor=#fff2cc;strokeColor=#d6b656;" vertex="1" parent="1">
          <mxGeometry x="440" y="160" width="160" height="160" as="geometry" />
        </mxCell>
        <mxCell id="MbVoy9RgzzWDaomn8BP1-14" style="edgeStyle=orthogonalEdgeStyle;rounded=0;orthogonalLoop=1;jettySize=auto;html=1;exitX=0.5;exitY=1;exitDx=0;exitDy=0;" edge="1" parent="1" source="MbVoy9RgzzWDaomn8BP1-5">
          <mxGeometry relative="1" as="geometry">
            <mxPoint x="420" y="400" as="targetPoint" />
          </mxGeometry>
        </mxCell>
        <mxCell id="MbVoy9RgzzWDaomn8BP1-5" value="&lt;div&gt;&lt;b&gt;Autre groupe&lt;/b&gt;&lt;/div&gt;&lt;div align=&quot;left&quot;&gt;&lt;br&gt;&lt;/div&gt;&lt;div align=&quot;left&quot;&gt;&lt;ul&gt;&lt;li&gt;choix accès catalogue&lt;/li&gt;&lt;li&gt;choix décrémentation crédits&lt;/li&gt;&lt;li&gt;choix réassort&lt;/li&gt;&lt;/ul&gt;&lt;/div&gt;" style="whiteSpace=wrap;html=1;aspect=fixed;fillColor=#f5f5f5;strokeColor=#666666;fontColor=#333333;" vertex="1" parent="1">
          <mxGeometry x="640" y="160" width="160" height="160" as="geometry" />
        </mxCell>
        <mxCell id="MbVoy9RgzzWDaomn8BP1-10" value="" style="rounded=0;whiteSpace=wrap;html=1;" vertex="1" parent="1">
          <mxGeometry x="40" y="400" width="760" height="160" as="geometry" />
        </mxCell>
        <mxCell id="MbVoy9RgzzWDaomn8BP1-143" style="edgeStyle=none;rounded=0;orthogonalLoop=1;jettySize=auto;html=1;exitX=1;exitY=0.5;exitDx=0;exitDy=0;" edge="1" parent="1" source="MbVoy9RgzzWDaomn8BP1-15">
          <mxGeometry relative="1" as="geometry">
            <mxPoint x="1010" y="594.6666666666667" as="targetPoint" />
          </mxGeometry>
        </mxCell>
        <mxCell id="MbVoy9RgzzWDaomn8BP1-15" value="&lt;font style=&quot;font-size: 18px&quot;&gt;&lt;b&gt;Filtres&lt;/b&gt;&lt;/font&gt;" style="text;html=1;strokeColor=none;fillColor=none;align=center;verticalAlign=middle;whiteSpace=wrap;rounded=0;" vertex="1" parent="1">
          <mxGeometry x="440" y="585" width="50" height="20" as="geometry" />
        </mxCell>
        <mxCell id="MbVoy9RgzzWDaomn8BP1-17" value="&lt;div align=&quot;left&quot;&gt;&lt;b&gt;Tableau des commandes établissement&lt;/b&gt; &lt;b&gt;ADMIN&lt;/b&gt;&lt;br&gt;&lt;/div&gt;" style="text;html=1;strokeColor=none;fillColor=none;align=left;verticalAlign=middle;whiteSpace=wrap;rounded=0;" vertex="1" parent="1">
          <mxGeometry x="50" y="410" width="310" height="20" as="geometry" />
        </mxCell>
        <mxCell id="MbVoy9RgzzWDaomn8BP1-18" value="" style="rounded=0;whiteSpace=wrap;html=1;fillColor=#d5e8d4;strokeColor=#82b366;" vertex="1" parent="1">
          <mxGeometry x="50" y="440" width="740" height="20" as="geometry" />
        </mxCell>
        <mxCell id="MbVoy9RgzzWDaomn8BP1-19" value="" style="rounded=0;whiteSpace=wrap;html=1;fillColor=#fff2cc;strokeColor=#d6b656;" vertex="1" parent="1">
          <mxGeometry x="50" y="470" width="740" height="20" as="geometry" />
        </mxCell>
        <mxCell id="MbVoy9RgzzWDaomn8BP1-20" value="" style="rounded=0;whiteSpace=wrap;html=1;fillColor=#fff2cc;strokeColor=#d6b656;" vertex="1" parent="1">
          <mxGeometry x="50" y="500" width="740" height="20" as="geometry" />
        </mxCell>
        <mxCell id="MbVoy9RgzzWDaomn8BP1-21" value="" style="rounded=0;whiteSpace=wrap;html=1;fillColor=#ffe6cc;strokeColor=#d79b00;" vertex="1" parent="1">
          <mxGeometry x="50" y="530" width="740" height="20" as="geometry" />
        </mxCell>
        <mxCell id="MbVoy9RgzzWDaomn8BP1-22" value="" style="shape=collate;whiteSpace=wrap;html=1;" vertex="1" parent="1">
          <mxGeometry x="407" y="580" width="26" height="30" as="geometry" />
        </mxCell>
        <mxCell id="MbVoy9RgzzWDaomn8BP1-23" value="Passent commande auprès de la Région" style="text;html=1;strokeColor=none;fillColor=none;align=center;verticalAlign=middle;whiteSpace=wrap;rounded=0;" vertex="1" parent="1">
          <mxGeometry x="460" y="330" width="240" height="20" as="geometry" />
        </mxCell>
        <mxCell id="MbVoy9RgzzWDaomn8BP1-32" value="" style="group" vertex="1" connectable="0" parent="1">
          <mxGeometry x="40" y="630" width="130" height="200" as="geometry" />
        </mxCell>
        <mxCell id="MbVoy9RgzzWDaomn8BP1-26" value="" style="rounded=0;whiteSpace=wrap;html=1;" vertex="1" parent="MbVoy9RgzzWDaomn8BP1-32">
          <mxGeometry width="130" height="200" as="geometry" />
        </mxCell>
        <mxCell id="MbVoy9RgzzWDaomn8BP1-27" value="&lt;div align=&quot;left&quot;&gt;&lt;b&gt;Tableau des commandes Filtre PAPIER&lt;/b&gt;&lt;br&gt;&lt;/div&gt;" style="text;html=1;strokeColor=none;fillColor=none;align=center;verticalAlign=middle;whiteSpace=wrap;rounded=0;" vertex="1" parent="MbVoy9RgzzWDaomn8BP1-32">
          <mxGeometry x="5" y="10" width="115" height="50" as="geometry" />
        </mxCell>
        <mxCell id="MbVoy9RgzzWDaomn8BP1-54" value="" style="group" vertex="1" connectable="0" parent="MbVoy9RgzzWDaomn8BP1-32">
          <mxGeometry x="7.5" y="70" width="115" height="110" as="geometry" />
        </mxCell>
        <mxCell id="MbVoy9RgzzWDaomn8BP1-28" value="" style="rounded=0;whiteSpace=wrap;html=1;fillColor=#d5e8d4;strokeColor=#82b366;" vertex="1" parent="MbVoy9RgzzWDaomn8BP1-54">
          <mxGeometry width="115" height="20" as="geometry" />
        </mxCell>
        <mxCell id="MbVoy9RgzzWDaomn8BP1-29" value="" style="rounded=0;whiteSpace=wrap;html=1;fillColor=#d5e8d4;strokeColor=#82b366;" vertex="1" parent="MbVoy9RgzzWDaomn8BP1-54">
          <mxGeometry y="30" width="115" height="20" as="geometry" />
        </mxCell>
        <mxCell id="MbVoy9RgzzWDaomn8BP1-30" value="" style="rounded=0;whiteSpace=wrap;html=1;fillColor=#d5e8d4;strokeColor=#82b366;" vertex="1" parent="MbVoy9RgzzWDaomn8BP1-54">
          <mxGeometry y="60" width="115" height="20" as="geometry" />
        </mxCell>
        <mxCell id="MbVoy9RgzzWDaomn8BP1-31" value="" style="rounded=0;whiteSpace=wrap;html=1;fillColor=#d5e8d4;strokeColor=#82b366;" vertex="1" parent="MbVoy9RgzzWDaomn8BP1-54">
          <mxGeometry y="90" width="115" height="20" as="geometry" />
        </mxCell>
        <mxCell id="MbVoy9RgzzWDaomn8BP1-73" style="edgeStyle=orthogonalEdgeStyle;rounded=0;orthogonalLoop=1;jettySize=auto;html=1;exitX=0.5;exitY=1;exitDx=0;exitDy=0;" edge="1" parent="MbVoy9RgzzWDaomn8BP1-54" source="MbVoy9RgzzWDaomn8BP1-29" target="MbVoy9RgzzWDaomn8BP1-29">
          <mxGeometry relative="1" as="geometry" />
        </mxCell>
        <mxCell id="MbVoy9RgzzWDaomn8BP1-74" value="" style="group" vertex="1" connectable="0" parent="1">
          <mxGeometry x="180" y="630" width="130" height="200" as="geometry" />
        </mxCell>
        <mxCell id="MbVoy9RgzzWDaomn8BP1-75" value="" style="rounded=0;whiteSpace=wrap;html=1;" vertex="1" parent="MbVoy9RgzzWDaomn8BP1-74">
          <mxGeometry width="130" height="200" as="geometry" />
        </mxCell>
        <mxCell id="MbVoy9RgzzWDaomn8BP1-76" value="&lt;div align=&quot;left&quot;&gt;&lt;b&gt;Tableau des commandes Filtre NUMERIQUE&lt;/b&gt;&lt;br&gt;&lt;/div&gt;" style="text;html=1;strokeColor=none;fillColor=none;align=center;verticalAlign=middle;whiteSpace=wrap;rounded=0;" vertex="1" parent="MbVoy9RgzzWDaomn8BP1-74">
          <mxGeometry x="5" y="10" width="115" height="50" as="geometry" />
        </mxCell>
        <mxCell id="MbVoy9RgzzWDaomn8BP1-77" value="" style="group" vertex="1" connectable="0" parent="MbVoy9RgzzWDaomn8BP1-74">
          <mxGeometry x="7.5" y="70" width="115" height="110" as="geometry" />
        </mxCell>
        <mxCell id="MbVoy9RgzzWDaomn8BP1-78" value="" style="rounded=0;whiteSpace=wrap;html=1;fillColor=#ffe6cc;strokeColor=#d79b00;" vertex="1" parent="MbVoy9RgzzWDaomn8BP1-77">
          <mxGeometry width="115" height="20" as="geometry" />
        </mxCell>
        <mxCell id="MbVoy9RgzzWDaomn8BP1-79" value="" style="rounded=0;whiteSpace=wrap;html=1;fillColor=#ffe6cc;strokeColor=#d79b00;" vertex="1" parent="MbVoy9RgzzWDaomn8BP1-77">
          <mxGeometry y="30" width="115" height="20" as="geometry" />
        </mxCell>
        <mxCell id="MbVoy9RgzzWDaomn8BP1-80" value="" style="rounded=0;whiteSpace=wrap;html=1;fillColor=#ffe6cc;strokeColor=#d79b00;" vertex="1" parent="MbVoy9RgzzWDaomn8BP1-77">
          <mxGeometry y="60" width="115" height="20" as="geometry" />
        </mxCell>
        <mxCell id="MbVoy9RgzzWDaomn8BP1-81" value="" style="rounded=0;whiteSpace=wrap;html=1;fillColor=#ffe6cc;strokeColor=#d79b00;" vertex="1" parent="MbVoy9RgzzWDaomn8BP1-77">
          <mxGeometry y="90" width="115" height="20" as="geometry" />
        </mxCell>
        <mxCell id="MbVoy9RgzzWDaomn8BP1-82" style="edgeStyle=orthogonalEdgeStyle;rounded=0;orthogonalLoop=1;jettySize=auto;html=1;exitX=0.5;exitY=1;exitDx=0;exitDy=0;" edge="1" parent="MbVoy9RgzzWDaomn8BP1-77" source="MbVoy9RgzzWDaomn8BP1-79" target="MbVoy9RgzzWDaomn8BP1-79">
          <mxGeometry relative="1" as="geometry" />
        </mxCell>
        <mxCell id="MbVoy9RgzzWDaomn8BP1-83" value="" style="group" vertex="1" connectable="0" parent="1">
          <mxGeometry x="320" y="630" width="130" height="200" as="geometry" />
        </mxCell>
        <mxCell id="MbVoy9RgzzWDaomn8BP1-84" value="" style="rounded=0;whiteSpace=wrap;html=1;" vertex="1" parent="MbVoy9RgzzWDaomn8BP1-83">
          <mxGeometry width="130" height="200" as="geometry" />
        </mxCell>
        <mxCell id="MbVoy9RgzzWDaomn8BP1-85" value="&lt;div align=&quot;left&quot;&gt;&lt;b&gt;Tableau des commandes Filtre MIXTE&lt;/b&gt;&lt;br&gt;&lt;/div&gt;" style="text;html=1;strokeColor=none;fillColor=none;align=center;verticalAlign=middle;whiteSpace=wrap;rounded=0;" vertex="1" parent="MbVoy9RgzzWDaomn8BP1-83">
          <mxGeometry x="5" y="10" width="115" height="50" as="geometry" />
        </mxCell>
        <mxCell id="MbVoy9RgzzWDaomn8BP1-86" value="" style="group" vertex="1" connectable="0" parent="MbVoy9RgzzWDaomn8BP1-83">
          <mxGeometry x="7.5" y="70" width="115" height="110" as="geometry" />
        </mxCell>
        <mxCell id="MbVoy9RgzzWDaomn8BP1-87" value="" style="rounded=0;whiteSpace=wrap;html=1;fillColor=#fff2cc;strokeColor=#d6b656;" vertex="1" parent="MbVoy9RgzzWDaomn8BP1-86">
          <mxGeometry width="115" height="20" as="geometry" />
        </mxCell>
        <mxCell id="MbVoy9RgzzWDaomn8BP1-88" value="" style="rounded=0;whiteSpace=wrap;html=1;fillColor=#fff2cc;strokeColor=#d6b656;" vertex="1" parent="MbVoy9RgzzWDaomn8BP1-86">
          <mxGeometry y="30" width="115" height="20" as="geometry" />
        </mxCell>
        <mxCell id="MbVoy9RgzzWDaomn8BP1-89" value="" style="rounded=0;whiteSpace=wrap;html=1;fillColor=#fff2cc;strokeColor=#d6b656;" vertex="1" parent="MbVoy9RgzzWDaomn8BP1-86">
          <mxGeometry y="60" width="115" height="20" as="geometry" />
        </mxCell>
        <mxCell id="MbVoy9RgzzWDaomn8BP1-90" value="" style="rounded=0;whiteSpace=wrap;html=1;fillColor=#fff2cc;strokeColor=#d6b656;" vertex="1" parent="MbVoy9RgzzWDaomn8BP1-86">
          <mxGeometry y="90" width="115" height="20" as="geometry" />
        </mxCell>
        <mxCell id="MbVoy9RgzzWDaomn8BP1-91" style="edgeStyle=orthogonalEdgeStyle;rounded=0;orthogonalLoop=1;jettySize=auto;html=1;exitX=0.5;exitY=1;exitDx=0;exitDy=0;" edge="1" parent="MbVoy9RgzzWDaomn8BP1-86" source="MbVoy9RgzzWDaomn8BP1-88" target="MbVoy9RgzzWDaomn8BP1-88">
          <mxGeometry relative="1" as="geometry" />
        </mxCell>
        <mxCell id="MbVoy9RgzzWDaomn8BP1-96" value="" style="group" vertex="1" connectable="0" parent="1">
          <mxGeometry x="460" y="630" width="130" height="200" as="geometry" />
        </mxCell>
        <mxCell id="MbVoy9RgzzWDaomn8BP1-97" value="" style="rounded=0;whiteSpace=wrap;html=1;" vertex="1" parent="MbVoy9RgzzWDaomn8BP1-96">
          <mxGeometry width="130" height="200" as="geometry" />
        </mxCell>
        <mxCell id="MbVoy9RgzzWDaomn8BP1-98" value="&lt;div align=&quot;left&quot;&gt;&lt;b&gt;Tableau des commandes Filtre REASSORT&lt;/b&gt;&lt;br&gt;&lt;/div&gt;" style="text;html=1;strokeColor=none;fillColor=none;align=center;verticalAlign=middle;whiteSpace=wrap;rounded=0;" vertex="1" parent="MbVoy9RgzzWDaomn8BP1-96">
          <mxGeometry x="5" y="10" width="115" height="50" as="geometry" />
        </mxCell>
        <mxCell id="MbVoy9RgzzWDaomn8BP1-99" value="" style="group" vertex="1" connectable="0" parent="MbVoy9RgzzWDaomn8BP1-96">
          <mxGeometry x="7.5" y="70" width="115" height="110" as="geometry" />
        </mxCell>
        <mxCell id="MbVoy9RgzzWDaomn8BP1-100" value="" style="rounded=0;whiteSpace=wrap;html=1;fillColor=#e1d5e7;strokeColor=#9673a6;" vertex="1" parent="MbVoy9RgzzWDaomn8BP1-99">
          <mxGeometry width="115" height="20" as="geometry" />
        </mxCell>
        <mxCell id="MbVoy9RgzzWDaomn8BP1-101" value="" style="rounded=0;whiteSpace=wrap;html=1;fillColor=#e1d5e7;strokeColor=#9673a6;" vertex="1" parent="MbVoy9RgzzWDaomn8BP1-99">
          <mxGeometry y="30" width="115" height="20" as="geometry" />
        </mxCell>
        <mxCell id="MbVoy9RgzzWDaomn8BP1-102" value="" style="rounded=0;whiteSpace=wrap;html=1;fillColor=#e1d5e7;strokeColor=#9673a6;" vertex="1" parent="MbVoy9RgzzWDaomn8BP1-99">
          <mxGeometry y="60" width="115" height="20" as="geometry" />
        </mxCell>
        <mxCell id="MbVoy9RgzzWDaomn8BP1-103" value="" style="rounded=0;whiteSpace=wrap;html=1;fillColor=#e1d5e7;strokeColor=#9673a6;" vertex="1" parent="MbVoy9RgzzWDaomn8BP1-99">
          <mxGeometry y="90" width="115" height="20" as="geometry" />
        </mxCell>
        <mxCell id="MbVoy9RgzzWDaomn8BP1-104" style="edgeStyle=orthogonalEdgeStyle;rounded=0;orthogonalLoop=1;jettySize=auto;html=1;exitX=0.5;exitY=1;exitDx=0;exitDy=0;" edge="1" parent="MbVoy9RgzzWDaomn8BP1-99" source="MbVoy9RgzzWDaomn8BP1-101" target="MbVoy9RgzzWDaomn8BP1-101">
          <mxGeometry relative="1" as="geometry" />
        </mxCell>
        <mxCell id="MbVoy9RgzzWDaomn8BP1-105" value="" style="group" vertex="1" connectable="0" parent="1">
          <mxGeometry x="600" y="630" width="130" height="200" as="geometry" />
        </mxCell>
        <mxCell id="MbVoy9RgzzWDaomn8BP1-106" value="" style="rounded=0;whiteSpace=wrap;html=1;" vertex="1" parent="MbVoy9RgzzWDaomn8BP1-105">
          <mxGeometry width="130" height="200" as="geometry" />
        </mxCell>
        <mxCell id="MbVoy9RgzzWDaomn8BP1-107" value="&lt;div align=&quot;left&quot;&gt;&lt;b&gt;Tableau des commandes Filtre LYCEES PRIVES&lt;/b&gt;&lt;br&gt;&lt;/div&gt;" style="text;html=1;strokeColor=none;fillColor=none;align=center;verticalAlign=middle;whiteSpace=wrap;rounded=0;" vertex="1" parent="MbVoy9RgzzWDaomn8BP1-105">
          <mxGeometry x="5" y="10" width="115" height="50" as="geometry" />
        </mxCell>
        <mxCell id="MbVoy9RgzzWDaomn8BP1-108" value="" style="group" vertex="1" connectable="0" parent="MbVoy9RgzzWDaomn8BP1-105">
          <mxGeometry x="7.5" y="70" width="115" height="110" as="geometry" />
        </mxCell>
        <mxCell id="MbVoy9RgzzWDaomn8BP1-109" value="" style="rounded=0;whiteSpace=wrap;html=1;fillColor=#f8cecc;strokeColor=#b85450;" vertex="1" parent="MbVoy9RgzzWDaomn8BP1-108">
          <mxGeometry width="115" height="20" as="geometry" />
        </mxCell>
        <mxCell id="MbVoy9RgzzWDaomn8BP1-110" value="" style="rounded=0;whiteSpace=wrap;html=1;fillColor=#f8cecc;strokeColor=#b85450;" vertex="1" parent="MbVoy9RgzzWDaomn8BP1-108">
          <mxGeometry y="30" width="115" height="20" as="geometry" />
        </mxCell>
        <mxCell id="MbVoy9RgzzWDaomn8BP1-111" value="" style="rounded=0;whiteSpace=wrap;html=1;fillColor=#f8cecc;strokeColor=#b85450;" vertex="1" parent="MbVoy9RgzzWDaomn8BP1-108">
          <mxGeometry y="60" width="115" height="20" as="geometry" />
        </mxCell>
        <mxCell id="MbVoy9RgzzWDaomn8BP1-112" value="" style="rounded=0;whiteSpace=wrap;html=1;fillColor=#f8cecc;strokeColor=#b85450;" vertex="1" parent="MbVoy9RgzzWDaomn8BP1-108">
          <mxGeometry y="90" width="115" height="20" as="geometry" />
        </mxCell>
        <mxCell id="MbVoy9RgzzWDaomn8BP1-113" style="edgeStyle=orthogonalEdgeStyle;rounded=0;orthogonalLoop=1;jettySize=auto;html=1;exitX=0.5;exitY=1;exitDx=0;exitDy=0;" edge="1" parent="MbVoy9RgzzWDaomn8BP1-108" source="MbVoy9RgzzWDaomn8BP1-110" target="MbVoy9RgzzWDaomn8BP1-110">
          <mxGeometry relative="1" as="geometry" />
        </mxCell>
        <mxCell id="MbVoy9RgzzWDaomn8BP1-114" value="Etc" style="text;html=1;strokeColor=none;fillColor=none;align=center;verticalAlign=middle;whiteSpace=wrap;rounded=0;" vertex="1" parent="1">
          <mxGeometry x="740" y="720" width="50" height="20" as="geometry" />
        </mxCell>
        <mxCell id="MbVoy9RgzzWDaomn8BP1-116" value="Passent commande auprès de la Région" style="text;html=1;strokeColor=none;fillColor=none;align=center;verticalAlign=middle;whiteSpace=wrap;rounded=0;" vertex="1" parent="1">
          <mxGeometry x="167" y="330" width="240" height="20" as="geometry" />
        </mxCell>
        <mxCell id="MbVoy9RgzzWDaomn8BP1-123" value="Paramètrent les groupements" style="text;html=1;strokeColor=none;fillColor=none;align=center;verticalAlign=middle;whiteSpace=wrap;rounded=0;" vertex="1" parent="1">
          <mxGeometry x="150" y="60" width="240" height="20" as="geometry" />
        </mxCell>
        <mxCell id="MbVoy9RgzzWDaomn8BP1-124" value="Paramètrent les groupements" style="text;html=1;strokeColor=none;fillColor=none;align=center;verticalAlign=middle;whiteSpace=wrap;rounded=0;" vertex="1" parent="1">
          <mxGeometry x="450" y="60" width="240" height="20" as="geometry" />
        </mxCell>
        <mxCell id="MbVoy9RgzzWDaomn8BP1-125" value="Paramètrent les groupements" style="text;html=1;strokeColor=none;fillColor=none;align=center;verticalAlign=middle;whiteSpace=wrap;rounded=0;" vertex="1" parent="1">
          <mxGeometry x="300" y="20" width="240" height="20" as="geometry" />
        </mxCell>
        <mxCell id="MbVoy9RgzzWDaomn8BP1-126" value="" style="shape=actor;whiteSpace=wrap;html=1;" vertex="1" parent="1">
          <mxGeometry x="375" y="900" width="40" height="60" as="geometry" />
        </mxCell>
        <mxCell id="MbVoy9RgzzWDaomn8BP1-141" value="" style="strokeWidth=2;html=1;shape=mxgraph.flowchart.annotation_2;align=left;labelPosition=right;pointerEvents=1;rotation=-90;" vertex="1" parent="1">
          <mxGeometry x="370" y="570" width="50" height="585" as="geometry" />
        </mxCell>
        <mxCell id="MbVoy9RgzzWDaomn8BP1-142" value="ADMIN valide et envoie la commande à LDE" style="text;html=1;strokeColor=none;fillColor=none;align=center;verticalAlign=middle;whiteSpace=wrap;rounded=0;" vertex="1" parent="1">
          <mxGeometry x="335" y="970" width="120" height="40" as="geometry" />
        </mxCell>
      </root>
    </mxGraphModel>
  </diagram>
</mxfile>
